<svg width="174" height="44" fill="none" xmlns="http://www.w3.org/2000/svg"><path d="M153.079 41.15c.038 1.257.99 2.205 2.213 2.205s2.175-.952 2.215-2.205l.252-8.29a1.087 1.087 0 0 1 1.483-.98c1.225.487 2.56.755 3.959.757 5.736.006 10.504-4.55 10.721-10.258.229-6.08-4.654-11.082-10.712-11.082-5.917 0-10.715 4.777-10.715 10.67 0 1.769.584 19.183.584 19.183Zm10.131-13.604c-3.092 0-5.601-2.499-5.601-5.58 0-3.08 2.509-5.578 5.601-5.578 3.095 0 5.603 2.498 5.603 5.579 0 3.08-2.506 5.579-5.603 5.579ZM32.135 13.498c-.069-1.386-1.09-2.171-2.194-2.171-1.112 0-2.102.785-2.183 2.171l-.557 9.514c-.176 2.997-1.901 4.535-4.1 4.535-2.131 0-3.828-1.405-4.06-3.926l-.694-7.377c-.124-1.32-1.071-1.989-1.997-1.989l-.049.002-.048-.002c-.927 0-1.873.67-1.997 1.989l-.694 7.377c-.232 2.521-1.929 3.926-4.06 3.926-2.2 0-3.925-1.537-4.1-4.535l-.557-9.514c-.081-1.386-1.072-2.171-2.184-2.171-1.104 0-2.125.785-2.194 2.171l-.455 9.277c-.292 5.94 4.815 9.863 9.49 9.863a9.5 9.5 0 0 0 6.098-2.2 1.094 1.094 0 0 1 1.402 0 9.5 9.5 0 0 0 6.099 2.2c4.675 0 9.783-3.923 9.49-9.863l-.456-9.277ZM140.396 11.297c-5.919 0-10.716 4.777-10.716 10.67s4.797 10.67 10.716 10.67c5.92 0 10.717-4.777 10.717-10.67s-4.799-10.67-10.717-10.67Zm0 16.249c-3.094 0-5.603-2.499-5.603-5.58 0-3.08 2.509-5.578 5.603-5.578 3.095 0 5.603 2.498 5.603 5.579 0 3.08-2.508 5.579-5.603 5.579ZM117.7 11.297c-5.919 0-10.717 4.777-10.717 10.67 0 .436.035 1.824.09 3.668-.04 1.104-.866 1.91-1.925 1.91-1.065 0-1.79-.763-1.919-1.748l-.678-5.172-.006-.047-.004-.041c-.702-5.217-5.19-9.24-10.621-9.24-5.872 0-10.64 4.702-10.715 10.53v-.004s-.053 1.6.153 3.556c.119 1.122-1.095 2.168-2.159 2.168-1.236 0-2.14-.96-2.204-3.078l-.663-21.747v-.034c-.03-.992-.957-2.043-2.212-2.043-1.274 0-2.176 1.05-2.207 2.077l-.662 21.747c-.062 2.036-1.381 3.078-2.874 3.078-1.509 0-2.797-1.042-2.859-3.078l-.662-21.747C64.823 1.639 63.848.645 62.648.645c-1.092 0-2.174.848-2.211 2.077l-.699 22.9c-.034 1.112-.862 1.925-1.926 1.925-1.065 0-1.79-.763-1.918-1.748l-.69-5.26c-.698-5.19-5.141-9.198-10.535-9.24-5.93-.047-10.803 4.766-10.803 10.67 0 5.892 4.797 10.67 10.716 10.67 2.492 0 4.786-.848 6.606-2.269.276-.213.575-.263.779-.263 1.603 0 1.801 2.53 5.845 2.53 1.626 0 3.324-1.095 4.209-1.762a.965.965 0 0 1 1.189.019c.834.669 2.573 1.744 5.144 1.744 2.238 0 3.714-.933 4.484-1.602a.98.98 0 0 1 1.286 0 6.56 6.56 0 0 0 4.348 1.602c3.55 0 5-2.53 6.056-2.53.333 0 .553.09.808.278a10.701 10.701 0 0 0 6.585 2.252c2.492 0 4.785-.847 6.605-2.267.276-.214.576-.264.779-.264 1.603 0 1.98 2.53 5.24 2.53 1.003 0 1.719-.38 2.541-.85.079-.046.18.01.182.1.15 4.695.303 9.263.303 9.263.038 1.257.99 2.205 2.213 2.205 1.222 0 2.175-.952 2.214-2.205l.253-8.29c.023-.757.794-1.252 1.5-.973 1.22.483 2.549.749 3.942.75 5.736.006 10.505-4.55 10.72-10.258.225-6.08-4.657-11.082-10.713-11.082ZM44.581 27.546c-3.094 0-5.603-2.499-5.603-5.58 0-3.08 2.51-5.578 5.603-5.578 3.094 0 5.603 2.498 5.603 5.579 0 3.08-2.509 5.579-5.603 5.579Zm47.337 0c-3.093 0-5.603-2.499-5.603-5.58 0-3.08 2.51-5.578 5.603-5.578 3.094 0 5.603 2.498 5.603 5.579 0 3.08-2.509 5.579-5.603 5.579Zm25.782 0c-3.094 0-5.603-2.499-5.603-5.58 0-3.08 2.509-5.578 5.603-5.578s5.603 2.498 5.603 5.579c0 3.08-2.509 5.579-5.603 5.579Z" fill="#13C1AC"/></svg>