<svg xmlns="http://www.w3.org/2000/svg" width="48" height="48"><g fill="none" fill-rule="evenodd"><path fill="#CFD8DC" d="M37.258 26.722c.02-.025.05-.04.068-.068.4-.588.64-1.278.69-1.992a4.045 4.045 0 0 0-.982-2.96 4.093 4.093 0 0 0-.86-.729V18.46c0-3.076-2.88-5.577-6.421-5.577h-2.825c-1.528 0-2.875.751-3.723 1.892-.848-1.14-2.195-1.892-3.723-1.892h-2.825c-3.542 0-6.422 2.501-6.422 5.577v2.501a4.07 4.07 0 0 0-1.853 3.407c0 .852.28 1.668.77 2.354-.475.5-.77 1.17-.77 1.91v2.779a2.783 2.783 0 0 0 2.78 2.78v.926a.926.926 0 1 0 1.852 0v-.927h20.382v.927a.926.926 0 1 0 1.852 0v-.927a2.783 2.783 0 0 0 2.78-2.779v-2.78c0-.74-.296-1.41-.77-1.91z"/><path fill="#253238" d="M36.175 31.411a.927.927 0 0 1-.927.926H11.162a.927.927 0 0 1-.927-.926v-2.78c0-.51.415-.926.927-.926h24.086c.512 0 .927.415.927.927v2.779zm-23.718-9.264a2.224 2.224 0 0 1 1.666 3.69l-.008.016h-2.953c-.118 0-.23.02-.342.034-.013-.015-.017-.035-.03-.051a2.214 2.214 0 0 1-.555-1.468c0-1.224.997-2.221 2.222-2.221zm-.369-3.687c0-2.054 2.05-3.724 4.57-3.724h2.824a2.8 2.8 0 0 1 2.797 2.796v8.32h-6.031c.183-.468.283-.97.283-1.484a4.08 4.08 0 0 0-4.074-4.074c-.126 0-.246.026-.369.037V18.46zm14.84-3.724h2.825c2.52 0 4.569 1.67 4.569 3.724v1.857c-.026-.002-.05-.01-.076-.012a4.04 4.04 0 0 0-2.959.983 4.044 4.044 0 0 0-1.397 2.788 4.058 4.058 0 0 0 .285 1.777h-6.044v-8.32a2.8 2.8 0 0 1 2.797-2.797zm8.32 11.117h-2.996c-.024-.047-.034-.097-.067-.138a2.223 2.223 0 0 1 1.927-3.563 2.209 2.209 0 0 1 1.52.763c.389.448.58 1.022.537 1.613-.029.39-.158.765-.375 1.086a.887.887 0 0 0-.119.282 2.701 2.701 0 0 0-.427-.043zm2.01.869c.02-.025.05-.04.068-.068.4-.588.64-1.278.69-1.992a4.045 4.045 0 0 0-.982-2.96 4.093 4.093 0 0 0-.86-.729V18.46c0-3.076-2.88-5.577-6.421-5.577h-2.825c-1.528 0-2.875.751-3.723 1.892-.848-1.14-2.195-1.892-3.723-1.892h-2.825c-3.542 0-6.422 2.501-6.422 5.577v2.501a4.07 4.07 0 0 0-1.853 3.407c0 .852.28 1.668.77 2.354-.475.5-.77 1.17-.77 1.91v2.779a2.783 2.783 0 0 0 2.78 2.78v.926a.926.926 0 1 0 1.852 0v-.927h20.382v.927a.926.926 0 1 0 1.852 0v-.927a2.783 2.783 0 0 0 2.78-2.779v-2.78c0-.74-.296-1.41-.77-1.91z"/><path fill="#FFF" fill-opacity=".6" d="M12.457 22.147a2.224 2.224 0 0 1 1.666 3.69l-.008.016h-2.953c-.118 0-.23.02-.342.034-.013-.015-.017-.035-.03-.051a2.214 2.214 0 0 1-.555-1.468c0-1.224.997-2.221 2.222-2.221zm22.791 3.706h-2.996c-.024-.047-.034-.097-.067-.138a2.223 2.223 0 0 1 1.927-3.563 2.209 2.209 0 0 1 1.52.763c.389.448.58 1.022.537 1.613-.029.39-.158.765-.375 1.086a.887.887 0 0 0-.119.282 2.701 2.701 0 0 0-.427-.043z"/></g></svg>