<svg width="28" height="27" viewBox="0 0 28 27" fill="none" xmlns="http://www.w3.org/2000/svg"><path fill-rule="evenodd" clip-rule="evenodd" d="M2 10c0-1.103.897-2 2-2s2 .897 2 2-.897 2-2 2-2-.897-2-2zm6 0c0-2.206-1.794-4-4-4s-4 1.794-4 4 1.794 4 4 4 4-1.794 4-4zm6 5c1.103 0 2 .897 2 2s-.897 2-2 2-2-.897-2-2 .897-2 2-2zm0 6c2.206 0 4-1.794 4-4s-1.794-4-4-4-4 1.794-4 4 1.794 4 4 4zm10-9c-1.103 0-2-.897-2-2s.897-2 2-2 2 .897 2 2-.897 2-2 2zm0-6c-2.206 0-4 1.794-4 4s1.794 4 4 4 4-1.794 4-4-1.794-4-4-4zM13 23v3a1 1 0 0 0 2 0v-3a1 1 0 0 0-2 0zm1-11a1 1 0 0 0 1-1V1a1 1 0 0 0-2 0v10a1 1 0 0 0 1 1zm10-7a1 1 0 0 0 1-1V1a1 1 0 0 0-2 0v3a1 1 0 0 0 1 1zm1 21V16a1 1 0 0 0-2 0v10a1 1 0 0 0 2 0zM4 5a1 1 0 0 0 1-1V1a1 1 0 0 0-2 0v3a1 1 0 0 0 1 1zM3 16v10a1 1 0 0 0 2 0V16a1 1 0 0 0-2 0z" fill="#fff"/></svg>